<?xml version="1.0" encoding="UTF-8"?>
<svg width="103px" height="103px" viewBox="0 0 103 103" version="1.1" xmlns="http://www.w3.org/2000/svg" xmlns:xlink="http://www.w3.org/1999/xlink">
    <!-- Generator: Sketch 52.6 (67491) - http://www.bohemiancoding.com/sketch -->
    <title>instagram</title>
    <desc>Created with Sketch.</desc>
    <g id="Page-1" stroke="none" stroke-width="1" fill="none" fill-rule="evenodd">
        <g id="about" transform="translate(-1522.000000, -5377.000000)">
            <g id="FOOTER" transform="translate(-78.000000, 5186.000000)">
                <g id="SOCIAL" transform="translate(1600.000000, 190.000000)">
                    <g id="instagram" transform="translate(0.000000, 1.000000)">
                        <circle id="Oval" stroke="#E9BC18" stroke-width="10" cx="51.5" cy="51.5" r="46.5"></circle>
                        <path d="M65.8609157,28.0909091 L37.1390843,28.0909091 C32.1511642,28.0909091 28.0909091,32.1484114 28.0909091,37.1390843 L28.0909091,65.8609157 C28.0909091,70.8515886 32.1511642,74.9090909 37.1390843,74.9090909 L65.8609157,74.9090909 C70.8488358,74.9090909 74.9090909,70.8515886 74.9090909,65.8609157 L74.9090909,37.1390843 C74.9090909,32.1484114 70.8488358,28.0909091 65.8609157,28.0909091 L65.8609157,28.0909091 Z M68.4567262,33.4889838 L69.4917472,33.4834784 L69.4917472,41.4195566 L61.5804434,41.444331 L61.5529163,33.5082528 L68.4567262,33.4889838 L68.4567262,33.4889838 Z M44.81916,46.6937591 C46.3166371,44.6182118 48.7500374,43.2583704 51.5,43.2583704 C54.2499626,43.2583704 56.6833629,44.6182118 58.18084,46.6937591 C59.158054,48.048095 59.7416296,49.7052296 59.7416296,51.5 C59.7416296,56.0419802 56.044733,59.7388769 51.5,59.7388769 C46.9580198,59.7388769 43.2611231,56.0419802 43.2611231,51.5 C43.2611231,49.7052296 43.8446988,48.048095 44.81916,46.6937591 L44.81916,46.6937591 Z M70.3478417,65.8609157 C70.3478417,68.3356068 68.3356068,70.3478417 65.8609157,70.3478417 L37.1390843,70.3478417 C34.6643932,70.3478417 32.6521583,68.3356068 32.6521583,65.8609157 L32.6521583,46.6937591 L39.6440552,46.6937591 C39.0384578,48.1802253 38.6998739,49.8015747 38.6998739,51.5 C38.6998739,58.557962 44.442038,64.3028789 51.5,64.3028789 C58.5607147,64.3028789 64.3028789,58.557962 64.3028789,51.5 C64.3028789,49.8015747 63.9587894,48.1802253 63.3586975,46.6937591 L70.3478417,46.6937591 L70.3478417,65.8609157 L70.3478417,65.8609157 Z" id="Shape" fill="#E9BC18"></path>
                    </g>
                </g>
            </g>
        </g>
    </g>
</svg>