<?xml version="1.0" encoding="UTF-8"?>
<svg width="103px" height="103px" viewBox="0 0 103 103" version="1.1" xmlns="http://www.w3.org/2000/svg" xmlns:xlink="http://www.w3.org/1999/xlink">
    <!-- Generator: Sketch 52.6 (67491) - http://www.bohemiancoding.com/sketch -->
    <title>twitter</title>
    <desc>Created with Sketch.</desc>
    <g id="Page-1" stroke="none" stroke-width="1" fill="none" fill-rule="evenodd">
        <g id="about" transform="translate(-1653.000000, -5377.000000)">
            <g id="FOOTER" transform="translate(-78.000000, 5186.000000)">
                <g id="SOCIAL" transform="translate(1600.000000, 190.000000)">
                    <g id="twitter" transform="translate(131.000000, 1.000000)">
                        <circle id="Oval" stroke="#E9BC18" stroke-width="10" cx="51.5" cy="51.5" r="46.5"></circle>
                        <path d="M71.4589396,39.4343263 C73.5422209,38.1196571 75.1407498,36.0350544 75.8909619,33.5517905 C73.9404104,34.7721199 71.7849934,35.6546525 69.4853047,36.1324373 C67.6501705,34.0630507 65.0273135,32.7727273 62.1245698,32.7727273 C56.5556876,32.7727273 52.0428733,37.5353597 52.0428733,43.4087659 C52.0428733,44.242607 52.1265508,45.0551456 52.2996766,45.8311655 C43.9203845,45.3868561 36.4903992,41.1567863 31.5130305,34.7173421 C30.6445157,36.2937278 30.1482215,38.1196571 30.1482215,40.0673151 C30.1482215,43.7556925 31.9285326,47.0119332 34.635067,48.9230726 C32.9817149,48.8682947 31.4264675,48.3844235 30.064544,47.5931874 L30.064544,47.7240457 C30.064544,52.879253 33.5386031,57.1793166 38.1581785,58.1531456 C37.3098617,58.4026893 36.4211489,58.5274612 35.4978109,58.5274612 C34.8485889,58.5274612 34.213794,58.4635536 33.6020826,58.3387818 C34.8832141,62.5627651 38.6083057,65.6424993 43.0230154,65.7246661 C39.5691543,68.5792024 35.2208095,70.2773167 30.4973587,70.2773167 C29.6836671,70.2773167 28.8786318,70.2316685 28.0909091,70.1312424 C32.5546711,73.1470691 37.8552082,74.9090909 43.5510493,74.9090909 C62.1043718,74.9090909 72.2437769,58.7009245 72.2437769,44.6443115 C72.2437769,44.1817427 72.2380061,43.7222171 72.217808,43.268778 C74.1885575,41.7684727 75.9025036,39.8938519 77.25,37.7605577 C75.4408347,38.6065716 73.496054,39.1786962 71.4589396,39.4343263 Z" id="Shape" fill="#E9BC18"></path>
                    </g>
                </g>
            </g>
        </g>
    </g>
</svg>